# xmcd CD database file generated by OrangeCD 6.2
#
# Track frame offsets:
#	150
#	13308
#	28671
#	48328
#	60299
#	76204
#	84401
#	95118
#	107684
#	118163
#	130498
#	140740
#	153746
#	174114
#	188289
#
# Disc length: 2737 seconds
#
# Revision: 2
# Processed by: cddbd v1.5.2PL0 Copyright (c) Steve Scherf et al.
# Submitted via: OrangeCD 6.2
#
DISCID=c10aaf0f
DTITLE=The Breadmakers - Night Of The Cobra
DYEAR=2008
DGENRE=
TTITLE0=Rockinitis
TTITLE1=For My Woman
TTITLE2=Voodoo Workin'
TTITLE3=Memphis Train
TTITLE4=Roosevelt And Iralee
TTITLE5=Mama Get The Hammer
TTITLE6=Hurtin' On Me
TTITLE7=Lovin' Machine
TTITLE8=Playin' Hookey
TTITLE9=Hoodoo Nitespot
TTITLE10=Eyes Like A Cat
TTITLE11=The Warning
TTITLE12=Hipshake
TTITLE13=Downbound
TTITLE14=Don't Need No Doctor
EXTD=Plus "Outta Gas' Filmed Live In The Cobra Bar July, 2008
EXTT0=
EXTT1=
EXTT2=
EXTT3=
EXTT4=
EXTT5=
EXTT6=
EXTT7=
EXTT8=
EXTT9=
EXTT10=
EXTT11=
EXTT12=
EXTT13=
EXTT14=
PLAYORDER=
